<?xml version="1.0" encoding="UTF-8"?>
<svg version="1.1" xmlns="http://www.w3.org/2000/svg" width="64" height="64">
<path d="M0 0 C2.01243524 0.00315581 4.02339072 -0.0203352 6.03564453 -0.0456543 C22.2806808 -0.05375252 22.2806808 -0.05375252 28.01757812 4.94335938 C34.83863238 11.9968772 34.49500666 20.88921999 34.46459961 30.16674805 C34.4614438 32.17918329 34.48493481 34.19013876 34.51025391 36.20239258 C34.51835213 52.44742885 34.51835213 52.44742885 29.52124023 58.18432617 C22.46772241 65.00538043 13.57537962 64.6617547 4.29785156 64.63134766 C2.28541632 64.62819185 0.27446085 64.65168285 -1.73779297 64.67700195 C-17.98282924 64.68510018 -17.98282924 64.68510018 -23.71972656 59.68798828 C-30.54078082 52.63447045 -30.19715509 43.74212766 -30.16674805 34.46459961 C-30.16359224 32.45216437 -30.18708324 30.44120889 -30.21240234 28.42895508 C-30.22050057 12.18391881 -30.22050057 12.18391881 -25.22338867 6.44702148 C-18.16987085 -0.37403278 -9.27752806 -0.03040705 0 0 Z M-4.85107422 17.31567383 C-5.18107422 19.62567383 -5.51107422 21.93567383 -5.85107422 24.31567383 C-8.16107422 24.64567383 -10.47107422 24.97567383 -12.85107422 25.31567383 C-12.52107422 26.63567383 -12.19107422 27.95567383 -11.85107422 29.31567383 C-9.87107422 29.31567383 -7.89107422 29.31567383 -5.85107422 29.31567383 C-5.85107422 31.29567383 -5.85107422 33.27567383 -5.85107422 35.31567383 C-7.83107422 35.31567383 -9.81107422 35.31567383 -11.85107422 35.31567383 C-12.18107422 36.63567383 -12.51107422 37.95567383 -12.85107422 39.31567383 C-10.54107422 39.64567383 -8.23107422 39.97567383 -5.85107422 40.31567383 C-5.52107422 42.62567383 -5.19107422 44.93567383 -4.85107422 47.31567383 C-3.53107422 46.98567383 -2.21107422 46.65567383 -0.85107422 46.31567383 C-0.85107422 44.33567383 -0.85107422 42.35567383 -0.85107422 40.31567383 C1.12892578 40.31567383 3.10892578 40.31567383 5.14892578 40.31567383 C5.14892578 42.29567383 5.14892578 44.27567383 5.14892578 46.31567383 C6.46892578 46.64567383 7.78892578 46.97567383 9.14892578 47.31567383 C9.47892578 45.00567383 9.80892578 42.69567383 10.14892578 40.31567383 C13.61392578 39.82067383 13.61392578 39.82067383 17.14892578 39.31567383 C16.81892578 37.99567383 16.48892578 36.67567383 16.14892578 35.31567383 C14.16892578 35.31567383 12.18892578 35.31567383 10.14892578 35.31567383 C10.14892578 33.33567383 10.14892578 31.35567383 10.14892578 29.31567383 C12.12892578 29.31567383 14.10892578 29.31567383 16.14892578 29.31567383 C16.47892578 27.99567383 16.80892578 26.67567383 17.14892578 25.31567383 C14.83892578 24.98567383 12.52892578 24.65567383 10.14892578 24.31567383 C9.81892578 22.00567383 9.48892578 19.69567383 9.14892578 17.31567383 C7.82892578 17.64567383 6.50892578 17.97567383 5.14892578 18.31567383 C5.14892578 20.29567383 5.14892578 22.27567383 5.14892578 24.31567383 C3.16892578 24.31567383 1.18892578 24.31567383 -0.85107422 24.31567383 C-0.85107422 22.33567383 -0.85107422 20.35567383 -0.85107422 18.31567383 C-2.17107422 17.98567383 -3.49107422 17.65567383 -4.85107422 17.31567383 Z " fill="#77212E" transform="translate(29.85107421875,-0.315673828125)"/>
<path d="M0 0 C1.98 0 3.96 0 6 0 C6 1.98 6 3.96 6 6 C4.02 6 2.04 6 0 6 C0 4.02 0 2.04 0 0 Z " fill="#77222E" transform="translate(29,29)"/>
</svg>
